<svg xmlns="http://www.w3.org/2000/svg" viewBox="115.96967782335456 162.5266589263517 139.40339921392825 144.94641508763837">
    <g>
        <g>
            <path d="M223.13998,242.18589l-74.11621,-34.6971l40.44612,3.90101v-48.86314h33.6701v62.41318l22.58406,10.26503l-0.411,1.232l-41.67712,-18.06705l-1.232,2.66901l20.73606,8.82803z"/>
            <path d="M151.69278,245.6759l-1.642,-0.616l-34.0811,-16.83505l2.05301,-4.72201l36.1341,16.63005z"/>
            <path d="M189.46989,243.00689l65.90319,31.82309l-32.43809,-9.03403c-0.616,4.72201 -1.84801,9.03403 -3.69601,13.14004l-30.18009,-14.78204c0.205,-0.616 0.411,-1.438 0.411,-2.25901z"/>
            <path d="M171.60784,258.81593l-1.232,2.46301l16.01405,8.00702c-3.28501,3.90101 -9.44403,6.57002 -16.63005,6.57002c-12.52404,0 -19.91506,-7.59602 -19.91506,-20.32506v-7.59702l-9.03303,-4.51601l-24.63707,4.51601l0.205,14.78204c0,27.71708 20.53106,44.75713 53.38015,44.75713c21.55706,0 39.83011,-10.47003 48.24714,-26.07407z"/>
        </g>
    </g>
</svg>